<svg xmlns="http://www.w3.org/2000/svg">
  <symbol id="i-chevron-down" viewBox="0 0 16 16">
    <path d="M4.2 6.2a1 1 0 0 1 1.4 0L8 8.6l2.4-2.4a1 1 0 1 1 1.4 1.4l-3.1 3.1a1 1 0 0 1-1.4 0L4.2 7.6a1 1 0 0 1 0-1.4z"></path>
  </symbol>

  <symbol id="i-sort" viewBox="0 0 16 16">
    <path d="M6 2a1 1 0 0 1 1 1v9.6l1.3-1.3a1 1 0 1 1 1.4 1.4l-3 3a1 1 0 0 1-1.4 0l-3-3a1 1 0 0 1 1.4-1.4L5 12.6V3a1 1 0 0 1 1-1z"></path>
    <path d="M10 14a1 1 0 0 1-1-1V3.4L7.7 4.7a1 1 0 1 1-1.4-1.4l3-3a1 1 0 0 1 1.4 0l3 3a1 1 0 0 1-1.4 1.4L11 3.4V13a1 1 0 0 1-1 1z" opacity=".35"></path>
  </symbol>

  <symbol id="i-pencil" viewBox="0 0 16 16">
    <path d="M12.9 1.7a2 2 0 0 1 2.8 2.8l-9 9L3 14l.5-3.7 9.4-8.6zM4.6 10.9 4.3 13l2.1-.3 8.2-8.2-1.8-1.8-8.2 8.2z"></path>
  </symbol>

  <symbol id="i-x" viewBox="0 0 16 16">
    <path d="M4 4a1 1 0 0 1 1.4 0L8 6.6 10.6 4A1 1 0 1 1 12 5.4L9.4 8 12 10.6A1 1 0 0 1 10.6 12L8 9.4 5.4 12A1 1 0 0 1 4 10.6L6.6 8 4 5.4A1 1 0 0 1 4 4z"></path>
  </symbol>

  <symbol id="i-check" viewBox="0 0 16 16">
    <path d="M6.5 11.2 3.3 8a1 1 0 1 1 1.4-1.4l1.8 1.8 4.8-4.8a1 1 0 1 1 1.4 1.4l-6.2 6.2a1 1 0 0 1-1.4 0z"></path>
  </symbol>

  <symbol id="i-gear" viewBox="0 0 16 16">
    <path d="M9.7 1.2 10 2.6c.3.1.6.3.9.5l1.3-.7 1.1 2-1.1 1c.1.3.2.6.2 1s-.1.7-.2 1l1.1 1-1.1 2-1.3-.7c-.3.2-.6.4-.9.5l-.3 1.4H6.3L6 13.4c-.3-.1-.6-.3-.9-.5l-1.3.7-1.1-2 1.1-1c-.1-.3-.2-.6-.2-1s.1-.7.2-1l-1.1-1 1.1-2 1.3.7c.3-.2.6-.4.9-.5l.3-1.4h3.4zM8 10.5A2.5 2.5 0 1 0 8 5.5a2.5 2.5 0 0 0 0 5z"></path>
  </symbol>

  <symbol id="i-copy" viewBox="0 0 16 16">
    <path d="M5 2.5A2.5 2.5 0 0 1 7.5 0h6A2.5 2.5 0 0 1 16 2.5v6A2.5 2.5 0 0 1 13.5 11h-6A2.5 2.5 0 0 1 5 8.5v-6zM7.5 2A.5.5 0 0 0 7 2.5v6a.5.5 0 0 0 .5.5h6a.5.5 0 0 0 .5-.5v-6a.5.5 0 0 0-.5-.5h-6z"></path>
    <path d="M0 6.5A2.5 2.5 0 0 1 2.5 4H4v2H2.5a.5.5 0 0 0-.5.5v6a.5.5 0 0 0 .5.5h6a.5.5 0 0 0 .5-.5V11h2v1.5A2.5 2.5 0 0 1 8.5 15h-6A2.5 2.5 0 0 1 0 12.5v-6z" opacity=".45"></path>
  </symbol>

  <symbol id="i-undo" viewBox="0 0 16 16">
    <path d="M6.2 4.1a1 1 0 0 1 0 1.4L4.7 7h6.1c2 0 3.7 1.5 3.7 3.5S12.8 14 10.8 14H7a1 1 0 1 1 0-2h3.8c.9 0 1.7-.7 1.7-1.5S11.7 9 10.8 9H4.7l1.5 1.5a1 1 0 1 1-1.4 1.4L1.6 8.7a1 1 0 0 1 0-1.4l3.2-3.2a1 1 0 0 1 1.4 0z"></path>
  </symbol>

  <symbol id="i-eye" viewBox="0 0 16 16">
    <path d="M8 3C3.5 3 1 8 1 8s2.5 5 7 5 7-5 7-5-2.5-5-7-5zm0 8a3 3 0 1 1 0-6 3 3 0 0 1 0 6z"></path>
    <path d="M8 6.5A1.5 1.5 0 1 0 8 9.5a1.5 1.5 0 0 0 0-3z"></path>
  </symbol>

  <symbol id="i-eye-off" viewBox="0 0 16 16">
    <path d="M2 2a1 1 0 0 1 1.4 0l10.6 10.6A1 1 0 1 1 12.6 14L11 12.4C9.9 13 8.8 13.3 8 13.3 3.5 13.3 1 8.3 1 8.3c.6-1.2 1.7-2.8 3.3-3.9L2 2zm4 4 1.1 1.1A1.9 1.9 0 0 0 7 8a1.9 1.9 0 0 0 .9 1.6L9 10.7A3 3 0 0 1 6 6z"></path>
    <path d="M8 3.3c4.5 0 7 5 7 5-.5 1-1.3 2.3-2.5 3.4L10.9 10c.6-.5 1.1-1.1 1.5-1.7 0 0-2.5-3.9-4.4-3.9-.3 0-.6 0-1 .1L5.4 3.9c.8-.4 1.7-.6 2.6-.6z"></path>
  </symbol>
</svg>
